<svg xmlns="http://www.w3.org/2000/svg" xmlns:xlink="http://www.w3.org/1999/xlink" viewBox="1990 0 1920 1080"><defs><style>.a{clip-path:url(#ab);}.b,.e{fill-rule:evenodd;}.c{fill:#00d8ff;}.d{fill:#2e001e;}.e,.f{fill:#ff2bc2;}.g{fill:#e44d26;}.h{fill:#f16529;}.i{fill:#ebebeb;}.j{fill:#fff;}.k{filter:url(#y);}.l{filter:url(#w);}.m{filter:url(#u);}.n{filter:url(#s);}.o{filter:url(#q);}.p{filter:url(#o);}.q{filter:url(#m);}.r{filter:url(#k);}.s{filter:url(#i);}.t{filter:url(#g);}.u{filter:url(#e);}.v{filter:url(#c);}.w{filter:url(#a);}</style><filter id="a" x="3144.739" y="162.913" width="332.358" height="292.911" filterUnits="userSpaceOnUse"><feOffset input="SourceAlpha"/><feGaussianBlur stdDeviation="15" result="b"/><feFlood flood-color="#515151" flood-opacity="0.659"/><feComposite operator="in" in2="b"/><feComposite in="SourceGraphic"/></filter><filter id="c" x="3216.921" y="141.025" width="266.29" height="237.36" filterUnits="userSpaceOnUse"><feOffset input="SourceAlpha"/><feGaussianBlur stdDeviation="15" result="d"/><feFlood flood-color="#515151" flood-opacity="0.659"/><feComposite operator="in" in2="d"/><feComposite in="SourceGraphic"/></filter><filter id="e" x="3278.466" y="129" width="196.466" height="181.524" filterUnits="userSpaceOnUse"><feOffset input="SourceAlpha"/><feGaussianBlur stdDeviation="15" result="f"/><feFlood flood-color="#515151" flood-opacity="0.659"/><feComposite operator="in" in2="f"/><feComposite in="SourceGraphic"/></filter><filter id="g" x="2541.463" y="238.366" width="107.565" height="107.565" filterUnits="userSpaceOnUse"><feOffset input="SourceAlpha"/><feGaussianBlur stdDeviation="10" result="h"/><feFlood flood-color="#515151" flood-opacity="0.2"/><feComposite operator="in" in2="h"/><feComposite in="SourceGraphic"/></filter><filter id="i" x="2432.121" y="208.141" width="326.156" height="168.49" filterUnits="userSpaceOnUse"><feOffset input="SourceAlpha"/><feGaussianBlur stdDeviation="10" result="j"/><feFlood flood-color="#515151" flood-opacity="0.2"/><feComposite operator="in" in2="j"/><feComposite in="SourceGraphic"/></filter><filter id="k" x="2483.598" y="144" width="223.111" height="296.682" filterUnits="userSpaceOnUse"><feOffset input="SourceAlpha"/><feGaussianBlur stdDeviation="10" result="l"/><feFlood flood-color="#515151" flood-opacity="0.2"/><feComposite operator="in" in2="l"/><feComposite in="SourceGraphic"/></filter><filter id="m" x="2483.657" y="144.229" width="223.467" height="296.595" filterUnits="userSpaceOnUse"><feOffset input="SourceAlpha"/><feGaussianBlur stdDeviation="10" result="n"/><feFlood flood-color="#515151" flood-opacity="0.2"/><feComposite operator="in" in2="n"/><feComposite in="SourceGraphic"/></filter><filter id="o" x="3399.022" y="526.766" width="316.849" height="315.113" filterUnits="userSpaceOnUse"><feOffset input="SourceAlpha"/><feGaussianBlur stdDeviation="10" result="p"/><feFlood flood-color="#515151" flood-opacity="0.639"/><feComposite operator="in" in2="p"/><feComposite in="SourceGraphic"/></filter><filter id="q" x="2214.853" y="550.58" width="300.061" height="308.283" filterUnits="userSpaceOnUse"><feOffset input="SourceAlpha"/><feGaussianBlur stdDeviation="10" result="r"/><feFlood flood-color="#515151" flood-opacity="0.549"/><feComposite operator="in" in2="r"/><feComposite in="SourceGraphic"/></filter><filter id="s" x="2226.117" y="594.771" width="60.844" height="61.145" filterUnits="userSpaceOnUse"><feOffset dy="3" input="SourceAlpha"/><feGaussianBlur stdDeviation="3" result="t"/><feFlood flood-color="#555" flood-opacity="0.502"/><feComposite operator="in" in2="t"/><feComposite in="SourceGraphic"/></filter><filter id="u" x="2257.031" y="577.741" width="59.427" height="60.327" filterUnits="userSpaceOnUse"><feOffset dy="3" input="SourceAlpha"/><feGaussianBlur stdDeviation="3" result="v"/><feFlood flood-color="#555" flood-opacity="0.502"/><feComposite operator="in" in2="v"/><feComposite in="SourceGraphic"/></filter><filter id="w" x="2286.559" y="557.46" width="65.027" height="63.56" filterUnits="userSpaceOnUse"><feOffset dy="3" input="SourceAlpha"/><feGaussianBlur stdDeviation="3" result="x"/><feFlood flood-color="#555" flood-opacity="0.502"/><feComposite operator="in" in2="x"/><feComposite in="SourceGraphic"/></filter><filter id="y" x="2322.237" y="541.984" width="56.154" height="58.437" filterUnits="userSpaceOnUse"><feOffset dy="3" input="SourceAlpha"/><feGaussianBlur stdDeviation="3" result="z"/><feFlood flood-color="#555" flood-opacity="0.502"/><feComposite operator="in" in2="z"/><feComposite in="SourceGraphic"/></filter><clipPath id="ab"><rect x="1990" width="1920" height="1080"/></clipPath></defs><g id="aa" class="a"><g class="w" transform="matrix(1, 0, 0, 1, 0, 0)"><path class="b" d="M242.357,301.82c-3.353,5.562-6.382,11.352-10.115,16.647-18.629,26.422-44.139,41.867-76.054,46.678a142.656,142.656,0,0,1-48.068-1.111c-16.924-3.21-32.263-10.486-46.429-20.093-29.008-19.672-49.011-46.029-57.885-80.19-5.917-22.778-5.356-45.339,4.679-67.018a104.177,104.177,0,0,1,9.758-16.053,205.355,205.355,0,0,1,13.725-16.916c-.819,1.915-1.684,3.813-2.45,5.749-9.021,22.782-9.119,45.923-2.188,69.139,9.431,31.59,28.913,55.818,55.954,74.16a133.473,133.473,0,0,0,80.481,23.495c22.278-.63,43.2-5.989,61.334-19.5,6.047-4.507,11.349-10.014,16.991-15.063Z" transform="translate(3189.74 44.15)"/></g><g class="v" transform="matrix(1, 0, 0, 1, 0, 0)"><path class="b" d="M473.763,170.851c-1.823,3.6-3.407,7.249-5.433,10.636C455.3,203.269,436,215.7,411.025,219.62a109.745,109.745,0,0,1-38.3-.831C363.576,217,355.036,213.051,347,208.245c-23.249-13.913-39.8-33.24-46.715-59.766-5.889-22.606-2.752-43.88,11.4-63.026,2.767-3.743,5.393-7.59,8.089-11.384a4.754,4.754,0,0,1,.569-.51,5.817,5.817,0,0,1-.23,1.08c-10.261,22.263-9.429,44.649,1.135,66.239,16.546,33.814,44.055,53.329,81.464,58.059,20.986,2.654,40.524-2,57.452-15.17C465.018,180,469.138,175.292,473.763,170.851Z" transform="translate(2964.45 112.47)"/></g><g class="u" transform="matrix(1, 0, 0, 1, 0, 0)"><path class="b" d="M564.263,24c-1.037,4.224-2.447,8.328-3.009,12.547-1.815,13.627,2.248,25.876,9.873,36.971,11.449,16.661,27.485,25.819,47.515,28.158a54.236,54.236,0,0,0,18.995-.789c7.113-1.691,9.948-3.4,19.944-11.853-.609,1.172-.925,1.878-1.325,2.533-9.414,15.46-23.159,23.171-41.278,23.907-31.017,1.262-56.613-22.179-62.353-46.313-3.395-14.272-1.139-27.533,7.542-39.537C561.531,27.74,562.907,25.862,564.263,24Z" transform="translate(2772.35 150)"/></g><g class="t" transform="matrix(1, 0, 0, 1, 0, 0)"><circle class="c" cx="23.782" cy="23.782" r="23.782" transform="translate(2571.46 268.37)"/></g><g class="s" transform="matrix(1, 0, 0, 1, 0, 0)"><path class="c" d="M151.625,294.09c-33.4,0-62.583-3.932-84.423-11.417C53.037,277.84,41,271.4,32.428,264.054c-9.1-7.77-13.928-16.25-13.928-24.446,0-15.729,17.245-31.126,46.191-41.169C88.379,190.2,119.268,185.6,151.578,185.6c31.742,0,62.2,4.453,85.75,12.6,13.786,4.738,25.393,10.9,33.637,17.718,8.954,7.485,13.692,15.681,13.692,23.688,0,16.345-19.282,32.879-50.36,43.159C212.313,290.063,182.94,294.09,151.625,294.09Zm0-97.12c-30.652,0-60.972,4.453-83.144,12.176-26.625,9.286-38.564,21.982-38.564,30.462,0,8.812,12.839,22.693,40.98,32.31,20.656,7.059,48.607,10.8,80.728,10.8,30.131,0,58.224-3.79,79.117-10.754,29.231-9.712,42.591-23.593,42.591-32.357,0-4.5-3.411-9.807-9.617-14.971-7.154-5.969-17.576-11.418-30.036-15.729C211.271,201.234,182.135,196.97,151.625,196.97Z" transform="translate(2443.62 52.54)"/></g><g class="r" transform="matrix(1, 0, 0, 1, 0, 0)"><path class="c" d="M154.846,286.895a24.978,24.978,0,0,1-12.7-3.127c-13.6-7.864-18.334-30.51-12.6-60.593,4.69-24.683,16.155-53.676,32.31-81.675,15.871-27.478,34.916-51.639,53.724-67.984,10.991-9.57,22.124-16.581,32.168-20.277,10.944-4.027,20.419-4.027,27.336-.047,14.165,8.149,18.855,33.163,12.223,65.189-4.69,22.74-15.871,50.171-31.5,77.317-16.676,28.9-34.679,52.208-52.066,67.415-11.275,9.854-22.882,17.055-33.494,20.8A46.178,46.178,0,0,1,154.846,286.895Zm11.891-142.553,4.927,2.843c-15.3,26.53-26.625,55-30.984,78.122-5.259,27.715-.189,44.391,7.106,48.607a14.022,14.022,0,0,0,7.059,1.611c9.428,0,24.256-5.969,41.406-20.94,16.439-14.355,33.637-36.716,49.7-64.525,15.065-26.1,25.772-52.35,30.226-73.906,6.206-30.178.853-48.655-6.775-53.061-3.885-2.227-10.186-1.942-17.766.853-8.764,3.222-18.666,9.522-28.615,18.192-17.861,15.539-36.1,38.658-51.355,65.094Z" transform="translate(2386.44 123.79)"/></g><g class="q" transform="matrix(1, 0, 0, 1, 0, 0)"><path class="c" d="M262.833,287.291c-12.886,0-29.231-7.77-46.286-22.456-19.045-16.392-38.422-40.79-54.624-68.789h0C146,168.568,134.635,140,129.85,115.508c-2.8-14.307-3.316-27.43-1.516-38,1.99-11.512,6.68-19.708,13.644-23.735,14.118-8.2,38.137.237,62.583,21.982,17.339,15.4,35.532,38.8,51.213,65.9,16.724,28.9,27.952,56.14,32.4,78.785,2.89,14.686,3.364,28.331,1.327,39.416-2.179,11.8-7.106,20.182-14.213,24.3A24.334,24.334,0,0,1,262.833,287.291Zm-91.056-96.93c15.35,26.53,34.395,50.55,52.208,65.852,21.366,18.382,38.327,22.361,45.67,18.1,7.627-4.406,13.218-22.456,7.438-51.639-4.264-21.414-15.018-47.47-31.126-75.28-15.113-26.1-32.5-48.513-48.939-63.1C174,63.821,155.338,59.226,147.71,63.631c-3.885,2.227-6.775,7.864-8.149,15.823-1.563,9.191-1.09,20.94,1.469,33.873,4.548,23.261,15.444,50.6,30.747,77.033Z" transform="translate(2386.37 123.53)"/></g><rect class="d" width="173.949" height="169.205" transform="translate(3524.426 567.567) rotate(30)"/><g class="p" transform="matrix(1, 0, 0, 1, 0, 0)"><path class="e" d="M0,0V185.019H189.763V0ZM7.907,7.907H181.856V177.112H7.907Z" transform="translate(3521.53 556.77) rotate(30)"/></g><path class="f" d="M147.278,89.341a10.857,10.857,0,0,0-4.586-.791c-9.963,0-16.6,7.67-16.6,20.4,0,14.548,6.8,20.4,15.655,20.4a14.917,14.917,0,0,0,5.456-.87V89.341Zm-35.422,20.241c0-18.423,11.86-32.813,31.311-32.813a35.061,35.061,0,0,1,4.112.158V56.37a.792.792,0,0,1,.791-.791H160.8c.633,0,.791.237.791.633V128.48a56.318,56.318,0,0,0,.4,7.749c0,.553,0,.633-.474.87a47.1,47.1,0,0,1-20.241,4.586C124.111,141.684,111.856,131.089,111.856,109.582ZM84.893,96.773l22.139,42.934c.4.633.158,1.265-.474,1.265H92.8a1.552,1.552,0,0,1-1.66-1.028q-7.591-15.655-15.5-32.5h-.158c-4.744,10.6-9.963,22.139-15.023,32.576a1.518,1.518,0,0,1-1.423.87H45.913c-.791,0-.87-.633-.474-1.107L67.1,98.118,46.15,56.686A.7.7,0,0,1,46.7,55.5H60.3c.791,0,1.186.158,1.423.87,4.981,10.516,10.042,20.874,14.786,31.469h.158C81.256,77.4,86.317,66.886,91.14,56.528c.4-.633.633-1.028,1.423-1.028h12.73c.633,0,.87.474.474,1.186Z" transform="translate(3519.146 541.973) rotate(30)"/><g class="o" transform="matrix(1, 0, 0, 1, 0, 0)"><path class="g" d="M242.147,100.62,226.886,271.581l-68.6,19.018-68.41-18.991L74.633,100.62Z" transform="translate(2129.91 614.51) rotate(-30)"/></g><path class="h" d="M256,292.356l55.431-15.368,13.041-146.094H256Z" transform="translate(2037.23 649.209) rotate(-30)"/><path class="i" d="M165.051,197.276h29.667V176.3H142.132l.5,5.626,5.154,57.79h46.929V218.751h-27.75Z" transform="translate(2078.082 597.402) rotate(-30)"/><path class="i" d="M177.461,336.333H156.409l2.938,32.927L202.3,381.186l.1-.027V359.34l-.092.024-23.355-6.306Z" transform="translate(2028.365 526.657) rotate(-30)"/><g class="n" transform="matrix(1, 0, 0, 1, 0, 0)"><path d="M108.382,0h10.657V10.529h9.749V0h10.658V31.885H128.788V21.208H119.04V31.885H108.382V0Z" transform="translate(2141.26 670.49) rotate(-30)"/></g><g class="m" transform="matrix(1, 0, 0, 1, 0, 0)"><path d="M195.06,10.574h-9.382V0H215.1V10.574h-9.386V31.885H195.061V10.574Z" transform="translate(2105.23 691.29) rotate(-30)"/></g><g class="l" transform="matrix(1, 0, 0, 1, 0, 0)"><path d="M259.511,0h11.112l6.836,11.2L284.288,0H295.4V31.885H284.791v-15.8l-7.332,11.337h-.183l-7.337-11.337v15.8H259.511Z" transform="translate(2070.82 711.16) rotate(-30)"/></g><g class="k" transform="matrix(1, 0, 0, 1, 0, 0)"><path d="M348.72,0h10.66V21.346h14.987V31.885H348.72Z" transform="translate(2029.24 735.17) rotate(-30)"/></g><path class="j" d="M255.843,289.188h25.823l-2.434,27.2L255.843,322.7v21.818L298.835,332.6l.315-3.543,4.928-55.21.512-5.631H255.843Z" transform="translate(2000.35 585.162) rotate(-30)"/><path class="j" d="M255.843,197.225v.051H306.5l.421-4.714.955-10.631.5-5.626H255.843v20.92Z" transform="translate(2025.083 628.001) rotate(-30)"/></g></svg>